<svg width="50" height="48" viewBox="0 0 50 48" fill="none" xmlns="http://www.w3.org/2000/svg">
<path fill-rule="evenodd" clip-rule="evenodd" d="M4.8533 13.5002C4.85374 13.3031 4.89465 13.108 4.9737 12.926C5.05274 12.7441 5.16838 12.5789 5.31399 12.4398C5.45959 12.3008 5.63232 12.1907 5.82228 12.1158C6.01224 12.041 6.21572 12.0028 6.42108 12.0034L43.4889 12.0901C44.3521 12.0919 45.0521 12.7669 45.0521 13.5949V34.5923C45.0521 35.4214 44.3516 36.0998 43.4881 36.1073L35.1558 36.1804C34.9481 36.1825 34.7496 36.2631 34.6034 36.4049C34.4572 36.5466 34.3751 36.7379 34.375 36.9374V41.0627C34.375 41.4767 34.1035 41.6024 33.7666 41.3417L26.8701 36.0049C25.8629 35.2257 25.8721 33.9713 26.8894 33.2046L33.7594 28.0266C34.0992 27.7703 34.375 27.8982 34.375 28.3142V32.3421C34.3748 32.4406 34.3947 32.5382 34.4338 32.6293C34.4729 32.7204 34.5302 32.8032 34.6026 32.873C34.675 32.9428 34.7611 32.9982 34.8558 33.0361C34.9505 33.074 35.0521 33.0936 35.1547 33.0938H41.1475C41.3545 33.0935 41.553 33.0146 41.6998 32.8745C41.8466 32.7344 41.9297 32.5442 41.9312 32.3455L42.0166 16.7807C42.0176 16.5841 41.9782 16.3891 41.9007 16.2071C41.8232 16.025 41.709 15.8594 41.5648 15.7197C41.4205 15.5801 41.249 15.4691 41.06 15.3931C40.8711 15.3171 40.6683 15.2777 40.4635 15.277L9.44647 15.1919C8.58416 15.1894 7.8824 15.8594 7.87908 16.6872L7.81854 31.5942C7.81761 31.7909 7.85718 31.9858 7.93498 32.1678C8.01278 32.3497 8.12726 32.5151 8.27186 32.6545C8.41646 32.7939 8.58832 32.9044 8.77756 32.9798C8.96681 33.0552 9.1697 33.0939 9.37459 33.0938H21.0937C21.3007 33.094 21.499 33.1729 21.6455 33.3133C21.7919 33.4537 21.8743 33.644 21.8748 33.8427V35.4387C21.8749 35.537 21.8547 35.6343 21.8154 35.725C21.776 35.8157 21.7184 35.8981 21.6457 35.9673C21.5731 36.0366 21.4869 36.0913 21.392 36.1283C21.2972 36.1654 21.1957 36.1841 21.0933 36.1832L6.34686 36.1024C5.48416 36.0976 4.7869 35.4211 4.78944 34.5934L4.85311 13.5004L4.8533 13.5002Z" fill="#E2E2E2"/>
</svg>
